<svg width="227" height="79" viewBox="0 0 227 79" fill="none" xmlns="http://www.w3.org/2000/svg">
<path d="M12.1133 11.0039C12.1133 12.1992 11.7734 13.1133 11.0938 13.7461C10.4219 14.3711 9.46875 14.6836 8.23438 14.6836C7.00781 14.6836 6.02344 14.2734 5.28125 13.4531C4.54688 12.625 4.17969 11.5 4.17969 10.0781V8.78906C4.17969 7.41406 4.55078 6.31641 5.29297 5.49609C6.04297 4.66797 7.02344 4.25391 8.23438 4.25391C9.48438 4.25391 10.4453 4.57422 11.1172 5.21484C11.7891 5.85547 12.125 6.75781 12.125 7.92188H10.4141C10.4141 7.14844 10.2266 6.59766 9.85156 6.26953C9.48438 5.93359 8.94531 5.76562 8.23438 5.76562C7.5 5.76562 6.92188 6.03516 6.5 6.57422C6.07812 7.11328 5.86719 7.86328 5.86719 8.82422V10.1484C5.86719 11.0859 6.07812 11.8242 6.5 12.3633C6.92188 12.9023 7.5 13.1719 8.23438 13.1719C8.95312 13.1719 9.49219 13.0078 9.85156 12.6797C10.2188 12.3516 10.4023 11.793 10.4023 11.0039H12.1133ZM1.41406 9.45703C1.41406 10.8008 1.72656 12.0469 2.35156 13.1953C2.97656 14.3359 3.82422 15.2305 4.89453 15.8789C5.97266 16.5273 7.13672 16.8516 8.38672 16.8516C9.63672 16.8516 10.7969 16.5273 11.8672 15.8789C12.9375 15.2305 13.7852 14.3359 14.4102 13.1953C15.0352 12.0469 15.3477 10.8008 15.3477 9.45703C15.3477 8.12891 15.0391 6.89844 14.4219 5.76562C13.8047 4.63281 12.957 3.74219 11.8789 3.09375C10.8086 2.4375 9.64453 2.10938 8.38672 2.10938C7.13672 2.10938 5.97266 2.43359 4.89453 3.08203C3.81641 3.72266 2.96484 4.61328 2.33984 5.75391C1.72266 6.89453 1.41406 8.12891 1.41406 9.45703ZM0.0664062 9.45703C0.0664062 7.87891 0.429688 6.41406 1.15625 5.0625C1.89062 3.71094 2.90234 2.64844 4.19141 1.875C5.48828 1.09375 6.88672 0.703125 8.38672 0.703125C9.88672 0.703125 11.2812 1.09375 12.5703 1.875C13.8594 2.64844 14.8672 3.71094 15.5938 5.0625C16.3281 6.41406 16.6953 7.87891 16.6953 9.45703C16.6953 10.9961 16.3438 12.4375 15.6406 13.7812C14.9375 15.125 13.9375 16.207 12.6406 17.0273C11.3516 17.8398 9.93359 18.2461 8.38672 18.2461C6.84766 18.2461 5.42969 17.8438 4.13281 17.0391C2.84375 16.2266 1.84375 15.1484 1.13281 13.8047C0.421875 12.4609 0.0664062 11.0117 0.0664062 9.45703ZM35.2227 13.5469H28.0742L26.4688 18H24.1484L30.6641 0.9375H32.6328L39.1602 18H36.8516L35.2227 13.5469ZM28.7539 11.6953H34.5547L31.6484 3.71484L28.7539 11.6953ZM43.2969 16.2305H50.7148V18H40.6484V16.4062L47.6445 7.11328H40.7539V5.32031H50.3633V6.85547L43.2969 16.2305ZM55.332 6.85547C56.293 5.67578 57.543 5.08594 59.082 5.08594C61.7617 5.08594 63.1133 6.59766 63.1367 9.62109V18H60.9688V9.60938C60.9609 8.69531 60.75 8.01953 60.3359 7.58203C59.9297 7.14453 59.293 6.92578 58.4258 6.92578C57.7227 6.92578 57.1055 7.11328 56.5742 7.48828C56.043 7.86328 55.6289 8.35547 55.332 8.96484V18H53.1641V0H55.332V6.85547ZM74.2109 18C74.0859 17.75 73.9844 17.3047 73.9062 16.6641C72.8984 17.7109 71.6953 18.2344 70.2969 18.2344C69.0469 18.2344 68.0195 17.8828 67.2148 17.1797C66.418 16.4688 66.0195 15.5703 66.0195 14.4844C66.0195 13.1641 66.5195 12.1406 67.5195 11.4141C68.5273 10.6797 69.9414 10.3125 71.7617 10.3125H73.8711V9.31641C73.8711 8.55859 73.6445 7.95703 73.1914 7.51172C72.7383 7.05859 72.0703 6.83203 71.1875 6.83203C70.4141 6.83203 69.7656 7.02734 69.2422 7.41797C68.7188 7.80859 68.457 8.28125 68.457 8.83594H66.2773C66.2773 8.20312 66.5 7.59375 66.9453 7.00781C67.3984 6.41406 68.0078 5.94531 68.7734 5.60156C69.5469 5.25781 70.3945 5.08594 71.3164 5.08594C72.7773 5.08594 73.9219 5.45312 74.75 6.1875C75.5781 6.91406 76.0078 7.91797 76.0391 9.19922V15.0352C76.0391 16.1992 76.1875 17.125 76.4844 17.8125V18H74.2109ZM70.6133 16.3477C71.293 16.3477 71.9375 16.1719 72.5469 15.8203C73.1562 15.4688 73.5977 15.0117 73.8711 14.4492V11.8477H72.1719C69.5156 11.8477 68.1875 12.625 68.1875 14.1797C68.1875 14.8594 68.4141 15.3906 68.8672 15.7734C69.3203 16.1562 69.9023 16.3477 70.6133 16.3477ZM85.5664 7.26562C85.2383 7.21094 84.8828 7.18359 84.5 7.18359C83.0781 7.18359 82.1133 7.78906 81.6055 9V18H79.4375V5.32031H81.5469L81.582 6.78516C82.293 5.65234 83.3008 5.08594 84.6055 5.08594C85.0273 5.08594 85.3477 5.14062 85.5664 5.25V7.26562ZM96.7695 0.9375L102.348 14.8594L107.926 0.9375H110.844V18H108.594V11.3555L108.805 4.18359L103.203 18H101.48L95.8906 4.21875L96.1133 11.3555V18H93.8633V0.9375H96.7695ZM122.305 18C122.18 17.75 122.078 17.3047 122 16.6641C120.992 17.7109 119.789 18.2344 118.391 18.2344C117.141 18.2344 116.113 17.8828 115.309 17.1797C114.512 16.4688 114.113 15.5703 114.113 14.4844C114.113 13.1641 114.613 12.1406 115.613 11.4141C116.621 10.6797 118.035 10.3125 119.855 10.3125H121.965V9.31641C121.965 8.55859 121.738 7.95703 121.285 7.51172C120.832 7.05859 120.164 6.83203 119.281 6.83203C118.508 6.83203 117.859 7.02734 117.336 7.41797C116.812 7.80859 116.551 8.28125 116.551 8.83594H114.371C114.371 8.20312 114.594 7.59375 115.039 7.00781C115.492 6.41406 116.102 5.94531 116.867 5.60156C117.641 5.25781 118.488 5.08594 119.41 5.08594C120.871 5.08594 122.016 5.45312 122.844 6.1875C123.672 6.91406 124.102 7.91797 124.133 9.19922V15.0352C124.133 16.1992 124.281 17.125 124.578 17.8125V18H122.305ZM118.707 16.3477C119.387 16.3477 120.031 16.1719 120.641 15.8203C121.25 15.4688 121.691 15.0117 121.965 14.4492V11.8477H120.266C117.609 11.8477 116.281 12.625 116.281 14.1797C116.281 14.8594 116.508 15.3906 116.961 15.7734C117.414 16.1562 117.996 16.3477 118.707 16.3477ZM129.887 18H127.719V0H129.887V18ZM135.723 18H133.555V5.32031H135.723V18ZM133.379 1.95703C133.379 1.60547 133.484 1.30859 133.695 1.06641C133.914 0.824219 134.234 0.703125 134.656 0.703125C135.078 0.703125 135.398 0.824219 135.617 1.06641C135.836 1.30859 135.945 1.60547 135.945 1.95703C135.945 2.30859 135.836 2.60156 135.617 2.83594C135.398 3.07031 135.078 3.1875 134.656 3.1875C134.234 3.1875 133.914 3.07031 133.695 2.83594C133.484 2.60156 133.379 2.30859 133.379 1.95703ZM142.742 12.1289L141.383 13.5469V18H139.215V0H141.383V10.8867L142.543 9.49219L146.492 5.32031H149.129L144.195 10.6172L149.703 18H147.16L142.742 12.1289ZM161.832 11.6367H156.113V9.86719H161.832V11.6367ZM10.3906 38.4648H3.23047V46H0.980469V28.9375H11.5508V30.7891H3.23047V36.625H10.3906V38.4648ZM21.4766 44.7461C20.6328 45.7383 19.3945 46.2344 17.7617 46.2344C16.4102 46.2344 15.3789 45.8438 14.668 45.0625C13.9648 44.2734 13.6094 43.1094 13.6016 41.5703V33.3203H15.7695V41.5117C15.7695 43.4336 16.5508 44.3945 18.1133 44.3945C19.7695 44.3945 20.8711 43.7773 21.418 42.543V33.3203H23.5859V46H21.5234L21.4766 44.7461ZM29.2461 46H27.0781V28H29.2461V46ZM35.082 46H32.9141V28H35.082V46ZM49.8828 38.3945C47.9531 37.8398 46.5469 37.1602 45.6641 36.3555C44.7891 35.543 44.3516 34.543 44.3516 33.3555C44.3516 32.0117 44.8867 30.9023 45.957 30.0273C47.0352 29.1445 48.4336 28.7031 50.1523 28.7031C51.3242 28.7031 52.3672 28.9297 53.2812 29.3828C54.2031 29.8359 54.9141 30.4609 55.4141 31.2578C55.9219 32.0547 56.1758 32.9258 56.1758 33.8711H53.9141C53.9141 32.8398 53.5859 32.0312 52.9297 31.4453C52.2734 30.8516 51.3477 30.5547 50.1523 30.5547C49.043 30.5547 48.1758 30.8008 47.5508 31.293C46.9336 31.7773 46.625 32.4531 46.625 33.3203C46.625 34.0156 46.918 34.6055 47.5039 35.0898C48.0977 35.5664 49.1016 36.0039 50.5156 36.4023C51.9375 36.8008 53.0469 37.2422 53.8438 37.7266C54.6484 38.2031 55.2422 38.7617 55.625 39.4023C56.0156 40.043 56.2109 40.7969 56.2109 41.6641C56.2109 43.0469 55.6719 44.1562 54.5938 44.9922C53.5156 45.8203 52.0742 46.2344 50.2695 46.2344C49.0977 46.2344 48.0039 46.0117 46.9883 45.5664C45.9727 45.1133 45.1875 44.4961 44.6328 43.7148C44.0859 42.9336 43.8125 42.0469 43.8125 41.0547H46.0742C46.0742 42.0859 46.4531 42.9023 47.2109 43.5039C47.9766 44.0977 48.9961 44.3945 50.2695 44.3945C51.457 44.3945 52.3672 44.1523 53 43.668C53.6328 43.1836 53.9492 42.5234 53.9492 41.6875C53.9492 40.8516 53.6562 40.207 53.0703 39.7539C52.4844 39.293 51.4219 38.8398 49.8828 38.3945ZM61.707 30.25V33.3203H64.0742V34.9961H61.707V42.8594C61.707 43.3672 61.8125 43.75 62.0234 44.0078C62.2344 44.2578 62.5938 44.3828 63.1016 44.3828C63.3516 44.3828 63.6953 44.3359 64.1328 44.2422V46C63.5625 46.1562 63.0078 46.2344 62.4688 46.2344C61.5 46.2344 60.7695 45.9414 60.2773 45.3555C59.7852 44.7695 59.5391 43.9375 59.5391 42.8594V34.9961H57.2305V33.3203H59.5391V30.25H61.707ZM74.4453 46C74.3203 45.75 74.2188 45.3047 74.1406 44.6641C73.1328 45.7109 71.9297 46.2344 70.5312 46.2344C69.2812 46.2344 68.2539 45.8828 67.4492 45.1797C66.6523 44.4688 66.2539 43.5703 66.2539 42.4844C66.2539 41.1641 66.7539 40.1406 67.7539 39.4141C68.7617 38.6797 70.1758 38.3125 71.9961 38.3125H74.1055V37.3164C74.1055 36.5586 73.8789 35.957 73.4258 35.5117C72.9727 35.0586 72.3047 34.832 71.4219 34.832C70.6484 34.832 70 35.0273 69.4766 35.418C68.9531 35.8086 68.6914 36.2812 68.6914 36.8359H66.5117C66.5117 36.2031 66.7344 35.5938 67.1797 35.0078C67.6328 34.4141 68.2422 33.9453 69.0078 33.6016C69.7812 33.2578 70.6289 33.0859 71.5508 33.0859C73.0117 33.0859 74.1562 33.4531 74.9844 34.1875C75.8125 34.9141 76.2422 35.918 76.2734 37.1992V43.0352C76.2734 44.1992 76.4219 45.125 76.7188 45.8125V46H74.4453ZM70.8477 44.3477C71.5273 44.3477 72.1719 44.1719 72.7812 43.8203C73.3906 43.4688 73.832 43.0117 74.1055 42.4492V39.8477H72.4062C69.75 39.8477 68.4219 40.625 68.4219 42.1797C68.4219 42.8594 68.6484 43.3906 69.1016 43.7734C69.5547 44.1562 70.1367 44.3477 70.8477 44.3477ZM84.7578 44.4648C85.5312 44.4648 86.207 44.2305 86.7852 43.7617C87.3633 43.293 87.6836 42.707 87.7461 42.0039H89.7969C89.7578 42.7305 89.5078 43.4219 89.0469 44.0781C88.5859 44.7344 87.9688 45.2578 87.1953 45.6484C86.4297 46.0391 85.6172 46.2344 84.7578 46.2344C83.0312 46.2344 81.6562 45.6602 80.6328 44.5117C79.6172 43.3555 79.1094 41.7773 79.1094 39.7773V39.4141C79.1094 38.1797 79.3359 37.082 79.7891 36.1211C80.2422 35.1602 80.8906 34.4141 81.7344 33.8828C82.5859 33.3516 83.5898 33.0859 84.7461 33.0859C86.168 33.0859 87.3477 33.5117 88.2852 34.3633C89.2305 35.2148 89.7344 36.3203 89.7969 37.6797H87.7461C87.6836 36.8594 87.3711 36.1875 86.8086 35.6641C86.2539 35.1328 85.5664 34.8672 84.7461 34.8672C83.6445 34.8672 82.7891 35.2656 82.1797 36.0625C81.5781 36.8516 81.2773 37.9961 81.2773 39.4961V39.9062C81.2773 41.3672 81.5781 42.4922 82.1797 43.2812C82.7812 44.0703 83.6406 44.4648 84.7578 44.4648ZM95.7734 40.1289L94.4141 41.5469V46H92.2461V28H94.4141V38.8867L95.5742 37.4922L99.5234 33.3203H102.16L97.2266 38.6172L102.734 46H100.191L95.7734 40.1289ZM0.980469 74V56.9375H5.79688C7.28125 56.9375 8.59375 57.2656 9.73438 57.9219C10.875 58.5781 11.7539 59.5117 12.3711 60.7227C12.9961 61.9336 13.3125 63.3242 13.3203 64.8945V65.9844C13.3203 67.5938 13.0078 69.0039 12.3828 70.2148C11.7656 71.4258 10.8789 72.3555 9.72266 73.0039C8.57422 73.6523 7.23438 73.9844 5.70312 74H0.980469ZM3.23047 58.7891V72.1602H5.59766C7.33203 72.1602 8.67969 71.6211 9.64062 70.543C10.6094 69.4648 11.0938 67.9297 11.0938 65.9375V64.9414C11.0938 63.0039 10.6367 61.5 9.72266 60.4297C8.81641 59.3516 7.52734 58.8047 5.85547 58.7891H3.23047ZM21.6523 74.2344C19.9336 74.2344 18.5352 73.6719 17.457 72.5469C16.3789 71.4141 15.8398 69.9023 15.8398 68.0117V67.6133C15.8398 66.3555 16.0781 65.2344 16.5547 64.25C17.0391 63.2578 17.7109 62.4844 18.5703 61.9297C19.4375 61.3672 20.375 61.0859 21.3828 61.0859C23.0312 61.0859 24.3125 61.6289 25.2266 62.7148C26.1406 63.8008 26.5977 65.3555 26.5977 67.3789V68.2812H18.0078C18.0391 69.5312 18.4023 70.543 19.0977 71.3164C19.8008 72.082 20.6914 72.4648 21.7695 72.4648C22.5352 72.4648 23.1836 72.3086 23.7148 71.9961C24.2461 71.6836 24.7109 71.2695 25.1094 70.7539L26.4336 71.7852C25.3711 73.418 23.7773 74.2344 21.6523 74.2344ZM21.3828 62.8672C20.5078 62.8672 19.7734 63.1875 19.1797 63.8281C18.5859 64.4609 18.2188 65.3516 18.0781 66.5H24.4297V66.3359C24.3672 65.2344 24.0703 64.3828 23.5391 63.7812C23.0078 63.1719 22.2891 62.8672 21.3828 62.8672ZM33.1367 71.0586L36.2773 61.3203H38.4922L33.9453 74H32.293L27.6992 61.3203H29.9141L33.1367 71.0586ZM45.6758 74.2344C43.957 74.2344 42.5586 73.6719 41.4805 72.5469C40.4023 71.4141 39.8633 69.9023 39.8633 68.0117V67.6133C39.8633 66.3555 40.1016 65.2344 40.5781 64.25C41.0625 63.2578 41.7344 62.4844 42.5938 61.9297C43.4609 61.3672 44.3984 61.0859 45.4062 61.0859C47.0547 61.0859 48.3359 61.6289 49.25 62.7148C50.1641 63.8008 50.6211 65.3555 50.6211 67.3789V68.2812H42.0312C42.0625 69.5312 42.4258 70.543 43.1211 71.3164C43.8242 72.082 44.7148 72.4648 45.793 72.4648C46.5586 72.4648 47.207 72.3086 47.7383 71.9961C48.2695 71.6836 48.7344 71.2695 49.1328 70.7539L50.457 71.7852C49.3945 73.418 47.8008 74.2344 45.6758 74.2344ZM45.4062 62.8672C44.5312 62.8672 43.7969 63.1875 43.2031 63.8281C42.6094 64.4609 42.2422 65.3516 42.1016 66.5H48.4531V66.3359C48.3906 65.2344 48.0938 64.3828 47.5625 63.7812C47.0312 63.1719 46.3125 62.8672 45.4062 62.8672ZM55.4961 74H53.3281V56H55.4961V74ZM58.4023 67.543C58.4023 66.3008 58.6445 65.1836 59.1289 64.1914C59.6211 63.1992 60.3008 62.4336 61.168 61.8945C62.043 61.3555 63.0391 61.0859 64.1562 61.0859C65.8828 61.0859 67.2773 61.6836 68.3398 62.8789C69.4102 64.0742 69.9453 65.6641 69.9453 67.6484V67.8008C69.9453 69.0352 69.707 70.1445 69.2305 71.1289C68.7617 72.1055 68.0859 72.8672 67.2031 73.4141C66.3281 73.9609 65.3203 74.2344 64.1797 74.2344C62.4609 74.2344 61.0664 73.6367 59.9961 72.4414C58.9336 71.2461 58.4023 69.6641 58.4023 67.6953V67.543ZM60.582 67.8008C60.582 69.207 60.9062 70.3359 61.5547 71.1875C62.2109 72.0391 63.0859 72.4648 64.1797 72.4648C65.2812 72.4648 66.1562 72.0352 66.8047 71.1758C67.4531 70.3086 67.7773 69.0977 67.7773 67.543C67.7773 66.1523 67.4453 65.0273 66.7812 64.168C66.125 63.3008 65.25 62.8672 64.1562 62.8672C63.0859 62.8672 62.2227 63.293 61.5664 64.1445C60.9102 64.9961 60.582 66.2148 60.582 67.8008ZM83.375 67.8008C83.375 69.7305 82.9336 71.2852 82.0508 72.4648C81.168 73.6445 79.9727 74.2344 78.4648 74.2344C76.9258 74.2344 75.7148 73.7461 74.832 72.7695V78.875H72.6641V61.3203H74.6445L74.75 62.7266C75.6328 61.6328 76.8594 61.0859 78.4297 61.0859C79.9531 61.0859 81.1562 61.6602 82.0391 62.8086C82.9297 63.957 83.375 65.5547 83.375 67.6016V67.8008ZM81.207 67.5547C81.207 66.125 80.9023 64.9961 80.293 64.168C79.6836 63.3398 78.8477 62.9258 77.7852 62.9258C76.4727 62.9258 75.4883 63.5078 74.832 64.6719V70.7305C75.4805 71.8867 76.4727 72.4648 77.8086 72.4648C78.8477 72.4648 79.6719 72.0547 80.2812 71.2344C80.8984 70.4062 81.207 69.1797 81.207 67.5547ZM91.4023 74.2344C89.6836 74.2344 88.2852 73.6719 87.207 72.5469C86.1289 71.4141 85.5898 69.9023 85.5898 68.0117V67.6133C85.5898 66.3555 85.8281 65.2344 86.3047 64.25C86.7891 63.2578 87.4609 62.4844 88.3203 61.9297C89.1875 61.3672 90.125 61.0859 91.1328 61.0859C92.7812 61.0859 94.0625 61.6289 94.9766 62.7148C95.8906 63.8008 96.3477 65.3555 96.3477 67.3789V68.2812H87.7578C87.7891 69.5312 88.1523 70.543 88.8477 71.3164C89.5508 72.082 90.4414 72.4648 91.5195 72.4648C92.2852 72.4648 92.9336 72.3086 93.4648 71.9961C93.9961 71.6836 94.4609 71.2695 94.8594 70.7539L96.1836 71.7852C95.1211 73.418 93.5273 74.2344 91.4023 74.2344ZM91.1328 62.8672C90.2578 62.8672 89.5234 63.1875 88.9297 63.8281C88.3359 64.4609 87.9688 65.3516 87.8281 66.5H94.1797V66.3359C94.1172 65.2344 93.8203 64.3828 93.2891 63.7812C92.7578 63.1719 92.0391 62.8672 91.1328 62.8672ZM104.996 63.2656C104.668 63.2109 104.312 63.1836 103.93 63.1836C102.508 63.1836 101.543 63.7891 101.035 65V74H98.8672V61.3203H100.977L101.012 62.7852C101.723 61.6523 102.73 61.0859 104.035 61.0859C104.457 61.0859 104.777 61.1406 104.996 61.25V63.2656ZM112.496 69.418C112.496 68.5977 112.723 67.8438 113.176 67.1562C113.637 66.4688 114.512 65.668 115.801 64.7539C115.043 63.832 114.535 63.0898 114.277 62.5273C114.02 61.9648 113.891 61.4062 113.891 60.8516C113.891 59.5547 114.273 58.5391 115.039 57.8047C115.805 57.0703 116.844 56.7031 118.156 56.7031C119.328 56.7031 120.297 57.0469 121.062 57.7344C121.828 58.4141 122.211 59.2734 122.211 60.3125C122.211 61 122.035 61.6367 121.684 62.2227C121.34 62.8008 120.734 63.4102 119.867 64.0508L118.613 64.9766L122.41 69.5117C122.941 68.4961 123.207 67.3672 123.207 66.125H125.164C125.164 68.1172 124.684 69.7695 123.723 71.082L126.16 74H123.559L122.422 72.6523C121.844 73.168 121.164 73.5625 120.383 73.8359C119.609 74.1016 118.82 74.2344 118.016 74.2344C116.352 74.2344 115.016 73.793 114.008 72.9102C113 72.0273 112.496 70.8633 112.496 69.418ZM118.016 72.4648C119.164 72.4648 120.215 72.0273 121.168 71.1523L117.008 66.1719L116.621 66.4531C115.316 67.4141 114.664 68.4023 114.664 69.418C114.664 70.3398 114.961 71.0781 115.555 71.6328C116.156 72.1875 116.977 72.4648 118.016 72.4648ZM116.059 60.7812C116.059 61.5312 116.52 62.4688 117.441 63.5938L118.824 62.6211C119.355 62.2461 119.719 61.8906 119.914 61.5547C120.109 61.2109 120.207 60.7969 120.207 60.3125C120.207 59.7891 120.012 59.3555 119.621 59.0117C119.23 58.6602 118.738 58.4844 118.145 58.4844C117.504 58.4844 116.996 58.7031 116.621 59.1406C116.246 59.5703 116.059 60.1172 116.059 60.7812ZM134.176 74V56.9375H138.992C140.477 56.9375 141.789 57.2656 142.93 57.9219C144.07 58.5781 144.949 59.5117 145.566 60.7227C146.191 61.9336 146.508 63.3242 146.516 64.8945V65.9844C146.516 67.5938 146.203 69.0039 145.578 70.2148C144.961 71.4258 144.074 72.3555 142.918 73.0039C141.77 73.6523 140.43 73.9844 138.898 74H134.176ZM136.426 58.7891V72.1602H138.793C140.527 72.1602 141.875 71.6211 142.836 70.543C143.805 69.4648 144.289 67.9297 144.289 65.9375V64.9414C144.289 63.0039 143.832 61.5 142.918 60.4297C142.012 59.3516 140.723 58.8047 139.051 58.7891H136.426ZM154.848 74.2344C153.129 74.2344 151.73 73.6719 150.652 72.5469C149.574 71.4141 149.035 69.9023 149.035 68.0117V67.6133C149.035 66.3555 149.273 65.2344 149.75 64.25C150.234 63.2578 150.906 62.4844 151.766 61.9297C152.633 61.3672 153.57 61.0859 154.578 61.0859C156.227 61.0859 157.508 61.6289 158.422 62.7148C159.336 63.8008 159.793 65.3555 159.793 67.3789V68.2812H151.203C151.234 69.5312 151.598 70.543 152.293 71.3164C152.996 72.082 153.887 72.4648 154.965 72.4648C155.73 72.4648 156.379 72.3086 156.91 71.9961C157.441 71.6836 157.906 71.2695 158.305 70.7539L159.629 71.7852C158.566 73.418 156.973 74.2344 154.848 74.2344ZM154.578 62.8672C153.703 62.8672 152.969 63.1875 152.375 63.8281C151.781 64.4609 151.414 65.3516 151.273 66.5H157.625V66.3359C157.562 65.2344 157.266 64.3828 156.734 63.7812C156.203 63.1719 155.484 62.8672 154.578 62.8672ZM169.695 70.6367C169.695 70.0508 169.473 69.5977 169.027 69.2773C168.59 68.9492 167.82 68.668 166.719 68.4336C165.625 68.1992 164.754 67.918 164.105 67.5898C163.465 67.2617 162.988 66.8711 162.676 66.418C162.371 65.9648 162.219 65.4258 162.219 64.8008C162.219 63.7617 162.656 62.8828 163.531 62.1641C164.414 61.4453 165.539 61.0859 166.906 61.0859C168.344 61.0859 169.508 61.457 170.398 62.1992C171.297 62.9414 171.746 63.8906 171.746 65.0469H169.566C169.566 64.4531 169.312 63.9414 168.805 63.5117C168.305 63.082 167.672 62.8672 166.906 62.8672C166.117 62.8672 165.5 63.0391 165.055 63.3828C164.609 63.7266 164.387 64.1758 164.387 64.7305C164.387 65.2539 164.594 65.6484 165.008 65.9141C165.422 66.1797 166.168 66.4336 167.246 66.6758C168.332 66.918 169.211 67.207 169.883 67.543C170.555 67.8789 171.051 68.2852 171.371 68.7617C171.699 69.2305 171.863 69.8047 171.863 70.4844C171.863 71.6172 171.41 72.5273 170.504 73.2148C169.598 73.8945 168.422 74.2344 166.977 74.2344C165.961 74.2344 165.062 74.0547 164.281 73.6953C163.5 73.3359 162.887 72.8359 162.441 72.1953C162.004 71.5469 161.785 70.8477 161.785 70.0977H163.953C163.992 70.8242 164.281 71.4023 164.82 71.832C165.367 72.2539 166.086 72.4648 166.977 72.4648C167.797 72.4648 168.453 72.3008 168.945 71.9727C169.445 71.6367 169.695 71.1914 169.695 70.6367ZM177.043 74H174.875V61.3203H177.043V74ZM174.699 57.957C174.699 57.6055 174.805 57.3086 175.016 57.0664C175.234 56.8242 175.555 56.7031 175.977 56.7031C176.398 56.7031 176.719 56.8242 176.938 57.0664C177.156 57.3086 177.266 57.6055 177.266 57.957C177.266 58.3086 177.156 58.6016 176.938 58.8359C176.719 59.0703 176.398 59.1875 175.977 59.1875C175.555 59.1875 175.234 59.0703 175.016 58.8359C174.805 58.6016 174.699 58.3086 174.699 57.957ZM180.008 67.5547C180.008 65.5781 180.465 64.0078 181.379 62.8438C182.293 61.6719 183.504 61.0859 185.012 61.0859C186.559 61.0859 187.766 61.6328 188.633 62.7266L188.738 61.3203H190.719V73.6953C190.719 75.3359 190.23 76.6289 189.254 77.5742C188.285 78.5195 186.98 78.9922 185.34 78.9922C184.426 78.9922 183.531 78.7969 182.656 78.4062C181.781 78.0156 181.113 77.4805 180.652 76.8008L181.777 75.5C182.707 76.6484 183.844 77.2227 185.188 77.2227C186.242 77.2227 187.062 76.9258 187.648 76.332C188.242 75.7383 188.539 74.9023 188.539 73.8242V72.7344C187.672 73.7344 186.488 74.2344 184.988 74.2344C183.504 74.2344 182.301 73.6367 181.379 72.4414C180.465 71.2461 180.008 69.6172 180.008 67.5547ZM182.188 67.8008C182.188 69.2305 182.48 70.3555 183.066 71.1758C183.652 71.9883 184.473 72.3945 185.527 72.3945C186.895 72.3945 187.898 71.7734 188.539 70.5312V64.7422C187.875 63.5312 186.879 62.9258 185.551 62.9258C184.496 62.9258 183.672 63.3359 183.078 64.1562C182.484 64.9766 182.188 66.1914 182.188 67.8008ZM196.051 61.3203L196.121 62.9141C197.09 61.6953 198.355 61.0859 199.918 61.0859C202.598 61.0859 203.949 62.5977 203.973 65.6211V74H201.805V65.6094C201.797 64.6953 201.586 64.0195 201.172 63.582C200.766 63.1445 200.129 62.9258 199.262 62.9258C198.559 62.9258 197.941 63.1133 197.41 63.4883C196.879 63.8633 196.465 64.3555 196.168 64.9648V74H194V61.3203H196.051ZM212.504 74.2344C210.785 74.2344 209.387 73.6719 208.309 72.5469C207.23 71.4141 206.691 69.9023 206.691 68.0117V67.6133C206.691 66.3555 206.93 65.2344 207.406 64.25C207.891 63.2578 208.562 62.4844 209.422 61.9297C210.289 61.3672 211.227 61.0859 212.234 61.0859C213.883 61.0859 215.164 61.6289 216.078 62.7148C216.992 63.8008 217.449 65.3555 217.449 67.3789V68.2812H208.859C208.891 69.5312 209.254 70.543 209.949 71.3164C210.652 72.082 211.543 72.4648 212.621 72.4648C213.387 72.4648 214.035 72.3086 214.566 71.9961C215.098 71.6836 215.562 71.2695 215.961 70.7539L217.285 71.7852C216.223 73.418 214.629 74.2344 212.504 74.2344ZM212.234 62.8672C211.359 62.8672 210.625 63.1875 210.031 63.8281C209.438 64.4609 209.07 65.3516 208.93 66.5H215.281V66.3359C215.219 65.2344 214.922 64.3828 214.391 63.7812C213.859 63.1719 213.141 62.8672 212.234 62.8672ZM226.098 63.2656C225.77 63.2109 225.414 63.1836 225.031 63.1836C223.609 63.1836 222.645 63.7891 222.137 65V74H219.969V61.3203H222.078L222.113 62.7852C222.824 61.6523 223.832 61.0859 225.137 61.0859C225.559 61.0859 225.879 61.1406 226.098 61.25V63.2656Z" fill="white"/>
</svg>
